<?xml version="1.0" encoding="UTF-8" standalone="no" ?>
<!DOCTYPE svg PUBLIC "-//W3C//DTD SVG 1.1//EN" "http://www.w3.org/Graphics/SVG/1.1/DTD/svg11.dtd">
<svg xmlns="http://www.w3.org/2000/svg" xmlns:xlink="http://www.w3.org/1999/xlink" version="1.1" width="1080" height="1080" viewBox="0 0 1080 1080" xml:space="preserve">
<desc>Created with Fabric.js 5.2.4</desc>
<defs>
</defs>
<g transform="matrix(1 0 0 1 540 540)" id="bbe73980-9354-4e00-9960-75aa8eb2fb2b"  >
</g>
<g transform="matrix(1 0 0 1 540 540)" id="f9424eac-97e6-43ff-a9df-c56cbcc3edd9"  >
<rect style="stroke: none; stroke-width: 1; stroke-dasharray: none; stroke-linecap: butt; stroke-dashoffset: 0; stroke-linejoin: miter; stroke-miterlimit: 4; fill: rgb(255,255,255); fill-rule: nonzero; opacity: 1; visibility: hidden;" vector-effect="non-scaling-stroke"  x="-540" y="-540" rx="0" ry="0" width="1080" height="1080" />
</g>
<g transform="matrix(1 0 0 1 540 540)"  >
<g style="opacity: 1;" vector-effect="non-scaling-stroke"   >
		<g transform="matrix(2.81 0 0 2.81 -88.09 0)"  >
<path style="stroke: none; stroke-width: 1; stroke-dasharray: none; stroke-linecap: butt; stroke-dashoffset: 0; stroke-linejoin: miter; stroke-miterlimit: 10; fill: rgb(0,129,251); fill-rule: nonzero; opacity: 1;" vector-effect="non-scaling-stroke"  transform=" translate(-13.65, -45)" d="M 2.949 47.892 C 2.949 48.934000000000005 3.178 49.735 3.477 50.219 C 3.8689999999999998 50.853 4.454 51.122 5.05 51.122 C 5.819 51.122 6.522 50.931 7.878 49.056 C 8.964 47.553 10.244 45.443999999999996 11.105 44.120999999999995 L 12.563 41.879999999999995 C 13.576 40.324 14.748000000000001 38.593999999999994 16.093 37.422 C 17.19 36.464999999999996 18.374 35.933 19.566 35.933 C 21.566 35.933 23.471999999999998 37.092 24.93 39.266 C 26.526 41.647 27.301 44.646 27.301 47.741 C 27.301 49.581 26.938 50.933 26.320999999999998 52.001 C 25.724999999999998 53.034 24.563 54.065999999999995 22.607999999999997 54.065999999999995 L 22.607999999999997 51.120999999999995 C 24.281999999999996 51.120999999999995 24.698999999999998 49.583 24.698999999999998 47.82299999999999 C 24.698999999999998 45.31499999999999 24.113999999999997 42.53099999999999 22.825999999999997 40.541999999999994 C 21.911999999999995 39.13099999999999 20.726999999999997 38.26899999999999 19.423 38.26899999999999 C 18.012999999999998 38.26899999999999 16.878999999999998 39.331999999999994 15.604 41.227999999999994 C 14.925999999999998 42.23499999999999 14.229999999999999 43.462999999999994 13.449 44.84799999999999 L 12.589 46.37199999999999 C 10.861 49.43599999999999 10.423 50.132999999999996 9.56 51.285 C 8.046000000000001 53.300999999999995 6.753 54.065999999999995 5.051 54.065999999999995 C 3.032 54.065999999999995 1.7550000000000003 53.19199999999999 0.9640000000000004 51.873999999999995 C 0.317 50.801 0 49.392 0 47.786 L 2.949 47.892 z" stroke-linecap="round" />
</g>
		<g transform="matrix(2.81 0 0 2.81 -84.83 0)"  >
<linearGradient id="SVGID_7" gradientUnits="userSpaceOnUse" gradientTransform="matrix(1 0 0 -1 0 92)"  x1="5.918" y1="47.4699" x2="24.7154" y2="46.5205">
<stop offset="0%" style="stop-color:rgb(0,100,225);stop-opacity: 1"/>
<stop offset="40%" style="stop-color:rgb(0,100,225);stop-opacity: 1"/>
<stop offset="83%" style="stop-color:rgb(0,115,238);stop-opacity: 1"/>
<stop offset="100%" style="stop-color:rgb(0,130,251);stop-opacity: 1"/>
</linearGradient>
<path style="stroke: none; stroke-width: 1; stroke-dasharray: none; stroke-linecap: butt; stroke-dashoffset: 0; stroke-linejoin: miter; stroke-miterlimit: 10; fill: url(#SVGID_7); fill-rule: nonzero; opacity: 1;" vector-effect="non-scaling-stroke"  transform=" translate(-14.81, -45)" d="M 2.325 39.475 C 3.6770000000000005 37.391 5.628 35.934000000000005 7.8660000000000005 35.934000000000005 C 9.162 35.934000000000005 10.450000000000001 36.318000000000005 11.795 37.416000000000004 C 13.267 38.617000000000004 14.835 40.594 16.792 43.854000000000006 L 17.494 45.02400000000001 C 19.188 47.84600000000001 20.151 49.29700000000001 20.715 49.982000000000006 C 21.44 50.861000000000004 21.948 51.123000000000005 22.608 51.123000000000005 C 24.282 51.123000000000005 24.699 49.58500000000001 24.699 47.825 L 27.3 47.743 C 27.3 49.583000000000006 26.937 50.935 26.32 52.003 C 25.724 53.036 24.562 54.068 22.607 54.068 C 21.392 54.068 20.314999999999998 53.803999999999995 19.125 52.681 C 18.21 51.818999999999996 17.14 50.288 16.317 48.910999999999994 L 13.869 44.821 C 12.641 42.768 11.514 41.238 10.861 40.545 C 10.159 39.800000000000004 9.258000000000001 38.9 7.8180000000000005 38.9 C 6.6530000000000005 38.9 5.664000000000001 39.717 4.836 40.967999999999996 L 2.325 39.475 z" stroke-linecap="round" />
</g>
		<g transform="matrix(2.81 0 0 2.81 -115.4 -3.08)"  >
<linearGradient id="SVGID_8" gradientUnits="userSpaceOnUse" gradientTransform="matrix(1 0 0 -1 0 92)"  x1="3.9328" y1="42.8703" x2="3.9328" y2="49.8006">
<stop offset="0%" style="stop-color:rgb(0,130,251);stop-opacity: 1"/>
<stop offset="100%" style="stop-color:rgb(0,100,224);stop-opacity: 1"/>
</linearGradient>
<path style="stroke: none; stroke-width: 1; stroke-dasharray: none; stroke-linecap: butt; stroke-dashoffset: 0; stroke-linejoin: miter; stroke-miterlimit: 10; fill: url(#SVGID_8); fill-rule: nonzero; opacity: 1;" vector-effect="non-scaling-stroke"  transform=" translate(-3.93, -43.9)" d="M 7.818 38.898 C 6.653 38.898 5.664 39.715 4.835999999999999 40.966 C 3.664999999999999 42.733000000000004 2.9489999999999994 45.364000000000004 2.9489999999999994 47.892 C 2.9489999999999994 48.934000000000005 3.1779999999999995 49.735 3.4769999999999994 50.219 L 0.9629999999999996 51.875 C 0.317 50.801 0 49.392 0 47.786 C 0 44.867000000000004 0.801 41.824 2.325 39.474000000000004 C 3.6770000000000005 37.39 5.628 35.93300000000001 7.8660000000000005 35.93300000000001 L 7.818 38.898 z" stroke-linecap="round" />
</g>
		<g transform="matrix(2.81 0 0 2.81 46.41 0.78)"  >
<path style="stroke: none; stroke-width: 1; stroke-dasharray: none; stroke-linecap: butt; stroke-dashoffset: 0; stroke-linejoin: miter; stroke-miterlimit: 10; fill: rgb(25,40,48); fill-rule: nonzero; opacity: 1;" vector-effect="non-scaling-stroke"  transform=" translate(-61.52, -45.28)" d="M 33.032 36.507 L 36.443 36.507 L 42.242999999999995 46.998999999999995 L 48.044 36.50699999999999 L 51.381 36.50699999999999 L 51.381 53.74799999999999 L 48.598 53.74799999999999 L 48.598 40.534 L 43.510999999999996 49.684 L 40.9 49.684 L 35.814 40.534 L 35.814 53.747 L 33.031 53.747 L 33.031 36.507 z M 60.1 42.935 C 58.104 42.935 56.903 44.437000000000005 56.615 46.297000000000004 L 63.388000000000005 46.297000000000004 C 63.248 44.381 62.143 42.935 60.1 42.935 L 60.1 42.935 z M 53.856 47.356 C 53.856 43.443000000000005 56.385000000000005 40.595 60.148 40.595 C 63.85 40.595 66.06 43.407 66.06 47.565 L 66.06 48.329 L 56.615 48.329 C 56.95 50.352000000000004 58.293 51.715 60.457 51.715 C 62.184 51.715 63.263 51.188 64.287 50.224000000000004 L 65.765 52.034000000000006 C 64.372 53.315000000000005 62.601 54.053000000000004 60.358000000000004 54.053000000000004 C 56.284 54.055 53.856 51.084 53.856 47.356 z M 69.434 43.182 L 66.87299999999999 43.182 L 66.87299999999999 40.904 L 69.434 40.904 L 69.434 37.136 L 72.119 37.136 L 72.119 40.904 L 76.01 40.904 L 76.01 43.182 L 72.119 43.182 L 72.119 48.957 C 72.119 50.929 72.749 51.629 74.299 51.629 C 75.006 51.629 75.412 51.568 76.01100000000001 51.469 L 76.01100000000001 53.723 C 75.26500000000001 53.934 74.55300000000001 54.031 73.78200000000001 54.031 C 70.88400000000001 54.031 69.43500000000002 52.446999999999996 69.43500000000002 49.278 L 69.434 43.182 z M 87.315 45.398 C 86.776 44.037000000000006 85.573 43.034000000000006 83.80499999999999 43.034000000000006 C 81.508 43.034000000000006 80.03699999999999 44.66400000000001 80.03699999999999 47.319 C 80.03699999999999 49.908 81.39099999999999 51.617000000000004 83.695 51.617000000000004 C 85.506 51.617000000000004 86.79899999999999 50.563 87.315 49.252 L 87.315 45.398 z M 90 53.747 L 87.365 53.747 L 87.365 51.949 C 86.628 53.007999999999996 85.288 54.055 83.11699999999999 54.055 C 79.62499999999999 54.055 77.29199999999999 51.132 77.29199999999999 47.319 C 77.29199999999999 43.47 79.68199999999999 40.595 83.26499999999999 40.595 C 85.03699999999999 40.595 86.42599999999999 41.303 87.36499999999998 42.554 L 87.36499999999998 40.904 L 90 40.904 L 90 53.747 z" stroke-linecap="round" />
</g>
</g>
</g>
</svg>